<!-- fill="339" -->
<svg xmlns="http://www.w3.org/2000/svg" className="avatar" viewBox="443 2 388.2 797.8">
<g id="startwrapper">
<path fill="#339" d="M645.8 524.4c-4.9-2.9-12.6-6.3-18.5-6.3-9.7.5-24.3 8.3-24.3 8.3s-3.9-3.9-21.4 7.8-35 15.6-35 15.6l-14.6 6.8s-25.3-2.4-29.2-5.3c-3.9-2.9-9.2-17-9.2-19s-.5-13.1-2.9-20.4c-2.9-7.8-6.3-14.1-6.3-14.1s-6.3-16.5-11.2-30.6-3.9-54.9-3.9-54.9v-22.8s-5.8 66.6-4.9 78.7-1 43.3 0 55.9c1 12.6 2.9 29.6-.5 39.9-3.4 10.2 2.9 44.7 2.9 44.7l5.8-3.9s-2.9 34.5 1.5 44.7c3.9 10.2 10.2 40.3 20.4 57.4l1.5-6.8s9.2 22.4 14.1 26.7c4.4 4.4 36.9 36.5 62.7 47.1 25.3 10.2 42.8 18.5 42.8 18.5l23.3 4.9 7.3 2.4 7.3-2.4 23.3-4.9s17.5-8.3 42.8-18.5 58.3-42.3 62.7-47.1c4.4-4.4 14.1-26.7 14.1-26.7l1.5 6.8c10.2-17 16.5-47.1 20.4-57.4 3.9-10.2 1.5-44.7 1.5-44.7l5.8 3.9s6.3-34.5 2.9-44.7c-3.4-10.2-1.5-27.2-.5-39.9 1-12.6-1-43.7 0-55.9 1-12.2-4.9-78.7-4.9-78.7v22.8s1 41.3-3.9 54.9c-4.9 14.1-11.2 30.6-11.2 30.6s-3.4 6.3-6.3 14.1-2.9 19-2.9 20.4c0 1.9-5.3 15.6-9.2 19-3.9 2.9-29.2 5.3-29.2 5.3l-14.6-6.8s-17.5-3.9-35-15.6-21.4-7.8-21.4-7.8-14.1-8.3-24.3-8.3c-6.6 0-13.9 3.4-19.3 6.3zm0 62.2c-13.6.5-35-.5-37.4-.5-2.9 0-25.8-6.8-25.8-6.8s10.7-4.4 19.9-6.8c9.2-2.4 24.3-3.4 25.3-3.9 1.5-.5 13.1 0 13.1 0h9.8s11.7-.5 13.1 0 16 1.9 25.3 3.9c9.2 2.4 19.9 6.8 19.9 6.8s-22.8 6.8-25.8 6.8c-2.4 0-23.8 1-37.4.5z"></path><g fill="#339"><path d="M461.1 332.9c0 25.8 8.7 57.8 8.7 57.8l22.8-101.6-31.6-14.6c.1.1.1 32.7.1 58.4z"></path><path strokeDasharray="300" strokeDashoffset="300" className="animate-path" id="start" d="M827.6,264.4 C824.2,235.7,818.9,213.39999999999998,818.9,213.39999999999998,818.9,213.39999999999998,828.9579646580524,201.75195774440397,829.4645907205598,186.27652195444367,830.0012265564033,169.8844054907042,816.1576877837921,168.82856887839534,808.1411214904249,151.32070701502656,799.9783582811881,133.4935569035191,782.8295009201946,136.21399787567594,782.8295009201946,136.21399787567594,780.6637138347108,126.86054563032475,746.7760560026828,113.37505394350664,734.8262284495127,113.86984354076579,722.6476134732183,114.3741062150582,721.2565197485326,114.36719196707148,711.0454146887258,102.18092072114023,700.7689140738768,89.91660425215463,667.3641428161709,98.98438650311665,641.5399610149673,86.28909690653278,615.6582465118253,73.56552396227096,624.3671938848767,30.289349757467853,624.3671938848767,30.289349757467853,620.4707854734393,39.160853487713155,616.3146548667393,47.882406538609054,611.8690429834471,56.43682749653912,617.9777865815553,35.9264055614226,601.9952892982956,7.659160490454554,601.9952892982956,7.659160490454554,610.2616233448352,31.017073712351372,596.7480922935007,52.46699658313987,596.7480922935007,52.46699658313987,596.8886935935627,46.74817278157913,596.9521696909326,40.98482072348268,596.9360588655686,35.175519134121885,596.4656837768748,59.70394795004447,579.4538331066846,67.31975569323036,579.4538331066846,67.31975569323036,575.7111704513618,60.20681949639838,571.9436679675201,53.07954201788417,568.1428603181985,45.93303579311488,568.1428603181985,45.93303579311488,572.87027624765,88.64775368747082,549.29846185793,71.2794967109911,525.708344779251,54.40067267211415,542.9901172070837,15.548994705228726,542.9901172070837,15.548994705228726,535.3215781659441,23.136218590619787,522.8078126411066,45.38904057660809,522.8078126411066,45.38904057660809,521.6507914040798,14.553084861521345,547.152095133647,1.1270426508948246,547.152095133647,1.1270426508948246,547.152095133647,1.1270426508948246,513.8469009213212,11.173112800423198,490.76770884923576,60.08439118395353,468.5637123735342,107.14088473268248,502.7260499452718,135.57692015826674,505.7685952533426,138.00148370333415,484.09821871395513,121.34538173553624,476.0255620665703,90.12193794298783,476.0255620665703,90.12193794298783,458.1397892859572,157.46220283949953,475.8831348096931,220.73970752788986,475.8831348096931,220.73970752788986,460.43699961388336,202.55948152168375,454.70877105795114,156.44429445721048,454.70877105795114,156.44429445721048,454.70877105795114,156.44429445721048,441.34979207331617,180.5109647192664,450.88572686038896,226.13705886062414,460.94893580171896,274.2859743863162,518.9166446469145,279.1549092529973,523.4000000000001,280.3,539.4000000000001,279.8,547.2,278.40000000000003,547.2,278.40000000000003,510.30000000000007,262.40000000000003,492.30000000000007,195.80000000000004,492.30000000000007,195.80000000000004,492.30000000000007,195.80000000000004,520.5000000000001,250.70000000000005,539.9000000000001,267.20000000000005,559.3000000000001,283.70000000000005,604.1000000000001,284.70000000000005,604.1000000000001,284.70000000000005,591.9000000000001,274.50000000000006,587.6000000000001,245.80000000000004,584.7000000000002,221.50000000000006,581.8000000000002,197.20000000000005,530.8000000000002,126.70000000000006,530.8000000000002,126.70000000000006,530.8000000000002,126.70000000000006,551.7000000000002,153.40000000000006,581.3000000000002,190.90000000000006,610.9000000000002,228.30000000000007,590.5000000000002,275.50000000000006,616.3000000000002,286.6000000000001,642.1000000000001,298.30000000000007,673.7000000000002,288.1000000000001,673.7000000000002,288.1000000000001,704.8000000000002,275.00000000000006,703.3000000000002,246.80000000000007,699.5000000000001,221.50000000000009,696.1000000000001,195.70000000000007,629.5000000000001,141.80000000000007,629.5000000000001,141.80000000000007,629.5000000000001,141.80000000000007,655.3000000000001,161.20000000000007,697.1000000000001,195.30000000000007,738.9000000000001,229.30000000000007,694.2000000000002,285.20000000000005,694.2000000000002,285.20000000000005,694.2000000000002,285.20000000000005,720.0000000000001,264.30000000000007,751.1000000000001,265.80000000000007,782.2000000000002,267.30000000000007,813.3000000000002,221.60000000000008,813.3000000000002,221.60000000000008,798.7000000000002,258.1000000000001,771.5000000000002,268.7000000000001,771.5000000000002,268.7000000000001,771.5000000000002,268.7000000000001,780.2000000000003,277.4000000000001,800.2000000000003,292.5000000000001,820.6000000000003,307.60000000000014,822.6000000000003,397.0000000000001,822.6000000000003,397.0000000000001,822.6000000000003,397.0000000000001,831.3000000000003,338.7000000000001,831.3000000000003,332.8000000000001,831.5000000000003,326.60000000000014,831.5000000000003,293.10000000000014,827.6000000000003,264.4000000000001"></path></g><path fill="#339" d="M724.6 451c-32.1 0-57.8-26.2-57.8-57.8 0-32.1 25.8-57.8 57.8-57.8 32.1 0 57.8 25.8 57.8 57.8.5 32.1-25.8 57.8-57.8 57.8zm0-110.8c-29.2 0-53 23.8-53 53s23.8 53 53 53 53-23.8 53-53c.4-29.2-23.4-53-53-53zM566.1 451c-32.1 0-57.8-26.2-57.8-57.8 0-32.1 25.8-57.8 57.8-57.8s57.8 25.8 57.8 57.8-25.7 57.8-57.8 57.8zm0-110.8c-29.2 0-53 23.8-53 53s23.8 53 53 53 53-23.8 53-53-23.8-53-53-53z"></path><g fill="#339"><path d="M767.3 346.1c-19.9-17.5-52.5-25.3-78.7-9.7-14.1 8.3-20.9 18.5-25.3 26.2-2.9-3.9-8.3-4.4-18.5-4.4s-16 .5-19 4.9c-4.4-7.8-12.2-18-26.2-26.2-26.7-15.6-58.3-7.8-78.3 9.7-19 17-30.1 18-30.1 18v16s5.3 0 7.8 4.4c1.9 3.9 1.9 11.2 7.8 14.1 2.9 30.6 28.2 54.9 59.8 54.9 33.5 0 60.8-27.2 60.8-60.8 0-3.9-.5-7.8-1.5-11.7 2.4-1.9 4.9-4.9 5.3-6.8 0 0-.5-1.9-1.5-4.9 1-4.9 1-6.3 16-6.3 13.1 0 14.6 1 15.6 5.8-1.5 3.4-1.5 5.3-1.5 5.3.5 2.4 2.9 4.9 5.3 6.8-.5 3.9-1 7.8-1 11.7 0 33.5 27.2 60.8 60.8 60.8 31.6 0 57.8-24.3 60.8-54.9 5.8-2.4 3.4-10.2 5.3-13.6 2.4-4.4 6.3-4.4 6.3-4.4v-16.5c.2 0-10-1-30-18.4zm-266.3 32c-1 0-1.9-1-1.9-1.9 0-1 1-1.9 1.9-1.9s1.9 1 1.9 1.9c0 1-.9 1.9-1.9 1.9zm0-5.3c-1 0-1.9-1-1.9-1.9 0-1 1-1.9 1.9-1.9s1.9 1 1.9 1.9-.9 1.9-1.9 1.9zm65.1 75.8c-30.6 0-55.4-24.8-55.4-55.4s24.8-55.4 55.4-55.4c30.6 0 55.4 24.8 55.4 55.4s-24.8 55.4-55.4 55.4zm158.5 0c-30.6 0-55.4-24.8-55.4-55.4s24.8-55.4 55.4-55.4 55.4 24.8 55.4 55.4c.5 30.6-24.8 55.4-55.4 55.4zm63.6-70.5c-1 0-1.9-1-1.9-1.9 0-1 1-1.9 1.9-1.9 1 0 1.9 1 1.9 1.9.1 1-.9 1.9-1.9 1.9zm0-5.3c-1 0-1.9-1-1.9-1.9 0-1 1-1.9 1.9-1.9 1 0 1.9 1 1.9 1.9.1 1.4-.9 1.9-1.9 1.9z"></path><path d="M724.6 456.4c-35 0-63.2-28.2-63.2-63.2 0-3.4.5-7.3 1-10.7-2.9-2.9-4.9-5.3-5.3-7.3v-1s.5-1.9 1.5-4.9c-.5-2.4-1.5-2.9-13.1-2.9-12.2 0-12.6.5-13.6 3.4 1 2.9 1.5 4.4 1.5 4.4v1c-.5 2.4-1.9 4.9-4.9 7.3.5 3.9 1 7.3 1 10.7 0 35-28.2 63.2-63.2 63.2-32.1 0-58.3-23.8-62.2-55.9-4.4-2.4-5.3-7.3-6.3-10.7-.5-1.5-1-2.9-1.5-3.9-1.5-2.9-5.3-3.4-5.3-3.4h-2.4v-20.9h2.4s10.7-1.5 29.6-18c13.6-11.7 31.1-18.5 48.6-18.5 11.7 0 22.4 2.9 32.6 8.7 10.7 6.3 19.4 14.6 25.3 24.3 3.9-2.9 9.7-3.4 18.5-3.4 8.3 0 13.6 0 17.5 2.9 4.4-7.3 11.2-16.5 24.3-24.3 9.7-5.8 20.9-8.7 32.6-8.7 17.5 0 35.5 6.8 49.1 18.5 18.5 16.5 28.2 18 28.7 18l1.9.5V382H797s-2.9 0-4.4 3.4c-.5 1-.5 2.4-1 3.9-.5 3.4-1 7.8-4.4 10.2-3.3 33.1-30.1 56.9-62.6 56.9zm-62.7-81.7c.5 1 1.5 2.4 4.4 5.3l1 1v1c-.5 3.9-1 7.3-1 11.2 0 32.1 26.2 58.3 58.3 58.3 30.1 0 55.4-22.8 58.3-53V397l1.5-.5c2.4-1 2.4-3.4 2.9-6.8 0-1.9.5-4.4 1.5-5.8 1.9-3.4 4.4-4.9 6.3-5.3v-12.2c-3.9-1-13.6-5.3-29.2-18.5-12.6-10.7-29.6-17.5-45.7-17.5-10.7 0-20.9 2.9-30.1 8.3-13.6 8.3-20.4 18.5-24.3 25.3l-1.9 3.4-1-1.5c.5 1 .5 1.9 1 2.9v.5l-.5.5c-.6 2.5-1 4-1.5 4.9zm-129.3 65.6c9.7 7.3 21.4 11.2 34 11.2 32.1 0 58.3-26.2 58.3-58.3 0-3.4-.5-6.8-1.5-11.2v-1.5l1-1c2.4-2.4 3.9-3.9 4.4-5.3 0-.5-.5-1.9-1.5-3.9v-1c1.5-7.3 3.9-8.3 18.5-8.3 8.3 0 13.1.5 15.6 2.4-2.4-2.4-6.3-2.9-16-2.9-10.2 0-14.6.5-17 3.9l-2.4 3.4-1.9-3.4c-5.8-10.2-14.1-19-25.3-25.3-8.7-5.8-19-8.7-29.6-8.7-16.5 0-33 6.3-45.7 17.5-15.6 13.6-25.8 17.5-30.1 18.5v12.2c2.4.5 5.3 1.9 7.3 5.3.5 1.5 1 2.9 1.5 4.4 1 3.4 1.9 6.8 4.9 8.3l.5.5v-3.9c0-32.1 25.8-57.8 57.8-57.8s57.8 25.8 57.8 57.8-26 57.8-58 57.8c-11.7 0-23.4-3.9-32.6-10.7zm33.5-100.1c-29.2 0-53 23.8-53 53s23.8 53 53 53 53-23.8 53-53-23.8-53-53-53zM724.6 451c-32.1 0-57.8-26.2-57.8-57.8 0-32.1 25.8-57.8 57.8-57.8 32.1 0 57.8 25.8 57.8 57.8.5 32.1-25.8 57.8-57.8 57.8zm0-110.8c-29.2 0-53 23.8-53 53s23.8 53 53 53 53-23.8 53-53c.4-29.2-23.4-53-53-53zm63.6 40.4c-2.4 0-4.4-1.9-4.4-4.4 0-1 .5-1.9 1-2.4-.5-.5-1-1.5-1-2.4 0-2.4 1.9-4.4 4.4-4.4 2.4 0 4.4 1.9 4.4 4.4 0 1-.5 1.9-1 2.4.5.5 1 1.5 1 2.4 0 2.4-1.9 4.4-4.4 4.4zm0-4.9c-.5 0-.5.5-.5.5 0 .5 1.5.5 1.5 0-.5 0-.5-.5-1-.5zm0-5.3c-.5 0-.5.5-.5.5 0 .5 1.5.5 1.5 0-.5-.1-.5-.5-1-.5zM501 380.6c-2.4 0-4.4-1.9-4.4-4.4 0-1 .5-1.9 1-2.4-.5-.5-1-1.5-1-2.4 0-2.4 1.9-4.4 4.4-4.4 2.4 0 4.4 1.9 4.4 4.4 0 1-.5 1.9-1 2.4.5.5 1 1.5 1 2.4 0 2.4-2 4.4-4.4 4.4zm0-4.9c-.5 0-.5.5-.5.5 0 .5 1.5.5 1.5 0-.5-.5-.5-.5-1-.5zm0-5.3c-.5 0-.5.5-.5.5 0 .5 1.5.5 1.5 0-.5-.1-.5-.5-1-.5z"></path></g></g><g id="endwrapper"><path fill="#339" d="M645.8 524.7c-4.9-2.9-12.6-6.3-18.5-6.3-9.7.5-24.3 8.3-24.3 8.3s-3.9-3.9-21.4 7.8-35 15.6-35 15.6l-14.6 6.8s-25.3-2.4-29.2-5.3-9.2-17-9.2-19c0-1.9-.5-13.1-2.9-20.4-2.9-7.8-6.3-14.1-6.3-14.1s-6.3-16.5-11.2-30.6-3.9-54.9-3.9-54.9v-22.8s-5.8 66.6-4.9 78.7-1 43.3 0 55.9c1 12.6 2.9 29.6-.5 39.9s2.9 44.7 2.9 44.7l5.8-3.9s-2.9 34.5 1.5 44.7c3.9 10.2 10.2 40.3 20.4 57.4l1.5-6.8s9.2 22.4 14.1 26.7c4.4 4.4 36.9 36.5 62.7 47.1 25.3 10.2 42.8 18.5 42.8 18.5l23.3 4.9 7.3 2.4 7.3-2.4 23.3-4.9s17.5-8.3 42.8-18.5 58.3-42.3 62.7-47.1c4.4-4.4 14.1-26.7 14.1-26.7l1.5 6.8c10.2-17 16.5-47.1 20.4-57.4 3.9-10.2 1.5-44.7 1.5-44.7l5.8 3.9s6.3-34.5 2.9-44.7c-3.4-10.2-1.5-27.2-.5-39.9 1-12.6-1-43.7 0-55.9 1-12.2-4.9-78.7-4.9-78.7v22.8s1 41.3-3.9 54.9c-4.9 14.1-11.2 30.6-11.2 30.6s-3.4 6.3-6.3 14.1-2.9 19-2.9 20.4c0 1.9-5.3 15.6-9.2 19-3.9 2.9-29.2 5.3-29.2 5.3l-14.6-6.8s-17.5-3.9-35-15.6-21.4-7.8-21.4-7.8-14.1-8.3-24.3-8.3c-6.6-.1-13.9 3.3-19.3 6.3zm0 62.2c-13.6.5-35-.5-37.4-.5-2.9 0-25.8-6.8-25.8-6.8s10.7-4.4 19.9-6.8c9.2-2.4 24.3-3.4 25.3-3.9 1.5-.5 13.1 0 13.1 0h9.8s11.7-.5 13.1 0 16 1.9 25.3 3.9c9.2 2.4 19.9 6.8 19.9 6.8s-22.8 6.8-25.8 6.8c-2.4 0-23.8 1-37.4.5z"></path><g fill="#339"><path d="M461.1 333.2c0 25.8 8.7 57.8 8.7 57.8l22.8-101.6-31.6-14.6c.1 0 .1 32.6.1 58.4z"></path><path className="animate-path" id="end" d="M827.6 264.6c-3.4-28.7-8.7-51-8.7-51s9.2-11.7 8.7-28.2-13.6-17.5-21.4-35-25.3-15.1-25.3-15.1c-1.9-9.2-36-22.8-48.1-22.4-12.2.5-13.6.5-23.8-11.7-10.2-12.2-41.6-7.2-69-15.6-38.7-11.8-12.7-52.5-12.7-52.5l-17.5 22.3c6.3-20.4-18-41.6-18-41.6 20.3 28.1 2.9 37.7 2.9 37.7l-10.5-16.1c9 27.7-5.6 31.6-5.6 31.6l-19.1-20s25.2 34.9-9.6 24.8c-31.1-15.2-17-55.1-17-55.1-7.3 7.8-10.3 28.8-10.3 28.8-11.9-24.2-.8-37.3-.8-37.3s-7 3.3-29.4 52.9c-21.4 47.1 9.2 73.9 12.2 76.3-25.9-2-34.1-49.8-34.1-49.8-17.7 97.5 6.3 133.9 6.3 133.9-25.2.1-16-65.1-16-65.1s-16.3 24-8.3 71c10.2 47.1 68 53 70.5 53 16-.5 23.8-1.9 23.8-1.9-36.9-16-54.9-82.6-54.9-82.6s28.2 54.9 47.6 71.4c19.4 16.5 64.2 17.5 64.2 17.5-12.2-10.2-16.5-38.9-19.4-63.2-2.9-24.3-53.9-94.8-53.9-94.8s20.9 26.7 50.5 64.2c29.6 37.4 9.2 84.6 35 95.7 25.8 11.7 57.4 1.5 57.4 1.5 31.1-13.1 29.6-41.3 25.8-66.6-3.4-25.8-70-79.7-70-79.7s25.8 19.4 67.6 53.5c41.8 34-2.9 89.9-2.9 89.9s25.8-20.9 56.9-19.4c31.1 1.5 62.2-44.2 62.2-44.2-14.6 36.5-41.8 47.1-41.8 47.1s8.7 8.7 28.7 23.8c20.4 15.1 22.4 104.5 22.4 104.5s8.7-58.3 8.7-64.2c.6-6 .6-39.6-3.3-68.3z"></path></g><path fill="#339" d="M724.6 451.3c-32.1 0-57.8-26.2-57.8-57.8 0-32.1 25.8-57.8 57.8-57.8 32.1 0 57.8 25.8 57.8 57.8.5 32-25.8 57.8-57.8 57.8zm0-110.8c-29.2 0-53 23.8-53 53s23.8 53 53 53 53-23.8 53-53c.4-29.2-23.4-53-53-53zM566.1 451.3c-32.1 0-57.8-26.2-57.8-57.8 0-32.1 25.8-57.8 57.8-57.8s57.8 25.8 57.8 57.8-25.7 57.8-57.8 57.8zm0-110.8c-29.2 0-53 23.8-53 53s23.8 53 53 53 53-23.8 53-53-23.8-53-53-53z"></path><g fill="#339"><path d="M767.3 346.3c-19.9-17.5-52.5-25.3-78.7-9.7-14.1 8.3-20.9 18.5-25.3 26.2-2.9-3.9-8.3-4.4-18.5-4.4s-16 .5-19 4.9c-4.4-7.8-12.2-18-26.2-26.2-26.7-15.6-58.3-7.8-78.3 9.7-19 17-30.1 18-30.1 18v16s5.3 0 7.8 4.4c1.9 3.9 1.9 11.2 7.8 14.1 2.9 30.6 28.2 54.9 59.8 54.9 33.5 0 60.8-27.2 60.8-60.8 0-3.9-.5-7.8-1.5-11.7 2.4-1.9 4.9-4.9 5.3-6.8 0 0-.5-1.9-1.5-4.9 1-4.9 1-6.3 16-6.3 13.1 0 14.6 1 15.6 5.8-1.5 3.4-1.5 5.3-1.5 5.3.5 2.4 2.9 4.9 5.3 6.8-.5 3.9-1 7.8-1 11.7 0 33.5 27.2 60.8 60.8 60.8 31.6 0 57.8-24.3 60.8-54.9 5.8-2.4 3.4-10.2 5.3-13.6 2.4-4.4 6.3-4.4 6.3-4.4v-16.5c.2.1-10-.9-30-18.4zM501 378.4c-1 0-1.9-1-1.9-1.9 0-1 1-1.9 1.9-1.9s1.9 1 1.9 1.9c0 .9-.9 1.9-1.9 1.9zm0-5.4c-1 0-1.9-1-1.9-1.9 0-1 1-1.9 1.9-1.9s1.9 1 1.9 1.9-.9 1.9-1.9 1.9zm65.1 75.8c-30.6 0-55.4-24.8-55.4-55.4s24.8-55.4 55.4-55.4c30.6 0 55.4 24.8 55.4 55.4s-24.8 55.4-55.4 55.4zm158.5 0c-30.6 0-55.4-24.8-55.4-55.4S694 338 724.6 338s55.4 24.8 55.4 55.4c.5 30.7-24.8 55.4-55.4 55.4zm63.6-70.4c-1 0-1.9-1-1.9-1.9 0-1 1-1.9 1.9-1.9 1 0 1.9 1 1.9 1.9.1.9-.9 1.9-1.9 1.9zm0-5.4c-1 0-1.9-1-1.9-1.9 0-1 1-1.9 1.9-1.9 1 0 1.9 1 1.9 1.9.1 1.4-.9 1.9-1.9 1.9z"></path><path d="M724.6 456.6c-35 0-63.2-28.2-63.2-63.2 0-3.4.5-7.3 1-10.7-2.9-2.9-4.9-5.3-5.3-7.3v-.9s.5-1.9 1.5-4.9c-.5-2.4-1.5-2.9-13.1-2.9-12.2 0-12.6.5-13.6 3.4 1 2.9 1.5 4.4 1.5 4.4v1c-.5 2.4-1.9 4.9-4.9 7.3.5 3.9 1 7.3 1 10.7 0 35-28.2 63.2-63.2 63.2-32.1 0-58.3-23.8-62.2-55.9-4.4-2.4-5.3-7.3-6.3-10.7-.5-1.5-1-2.9-1.5-3.9-1.5-2.9-5.3-3.4-5.3-3.4h-2.4v-20.9h2.4s10.7-1.5 29.6-18c13.6-11.7 31.1-18.5 48.6-18.5 11.7 0 22.4 2.9 32.6 8.7 10.7 6.3 19.4 14.6 25.3 24.3 3.9-2.9 9.7-3.4 18.5-3.4 8.3 0 13.6 0 17.5 2.9 4.4-7.3 11.2-16.5 24.3-24.3 9.7-5.8 20.9-8.7 32.6-8.7 17.5 0 35.5 6.8 49.1 18.5 18.5 16.5 28.2 18 28.7 18l1.9.5v20.4H797s-2.9 0-4.4 3.4c-.5 1-.5 2.4-1 3.9-.5 3.4-1 7.8-4.4 10.2-3.3 33-30.1 56.8-62.6 56.8zM661.9 375c.5 1 1.5 2.4 4.4 5.3l1 1v1c-.5 3.9-1 7.3-1 11.2 0 32.1 26.2 58.3 58.3 58.3 30.1 0 55.4-22.8 58.3-53v-1.5l1.5-.5c2.4-1 2.4-3.4 2.9-6.8 0-1.9.5-4.4 1.5-5.8 1.9-3.4 4.4-4.9 6.3-5.3v-12.2c-3.9-1-13.6-5.3-29.2-18.5-12.6-10.7-29.6-17.5-45.7-17.5-10.7 0-20.9 2.9-30.1 8.3-13.6 8.3-20.4 18.5-24.3 25.3l-1.9 3.4-1-1.5c.5 1 .5 1.9 1 2.9v.5l-.5.5c-.6 2.4-1 3.9-1.5 4.9zm-129.3 65.6c9.7 7.3 21.4 11.2 34 11.2 32.1 0 58.3-26.2 58.3-58.3 0-3.4-.5-6.8-1.5-11.2v-1.5l1-1c2.4-2.4 3.9-3.9 4.4-5.3 0-.5-.5-1.9-1.5-3.9v-1c1.5-7.3 3.9-8.3 18.5-8.3 8.3 0 13.1.5 15.6 2.4-2.4-2.4-6.3-2.9-16-2.9-10.2 0-14.6.5-17 3.9l-2.4 3.4-1.9-3.4c-5.8-10.2-14.1-19-25.3-25.3-8.7-5.8-19-8.7-29.6-8.7-16.5 0-33 6.3-45.7 17.5-15.6 13.6-25.8 17.5-30.1 18.5v12.2c2.4.5 5.3 1.9 7.3 5.3.5 1.5 1 2.9 1.5 4.4 1 3.4 1.9 6.8 4.9 8.3l.5.5v-3.9c0-32.1 25.8-57.8 57.8-57.8s57.8 25.8 57.8 57.8-25.8 57.8-57.8 57.8c-11.9 0-23.6-3.9-32.8-10.7zm33.5-100.1c-29.2 0-53 23.8-53 53s23.8 53 53 53 53-23.8 53-53-23.8-53-53-53zm158.5 110.8c-32.1 0-57.8-26.2-57.8-57.8 0-32.1 25.8-57.8 57.8-57.8 32.1 0 57.8 25.8 57.8 57.8.5 32-25.8 57.8-57.8 57.8zm0-110.8c-29.2 0-53 23.8-53 53s23.8 53 53 53 53-23.8 53-53c.4-29.2-23.4-53-53-53zm63.6 40.3c-2.4 0-4.4-1.9-4.4-4.4 0-1 .5-1.9 1-2.4-.5-.5-1-1.5-1-2.4 0-2.4 1.9-4.4 4.4-4.4 2.4 0 4.4 1.9 4.4 4.4 0 1-.5 1.9-1 2.4.5.5 1 1.5 1 2.4 0 2.5-1.9 4.4-4.4 4.4zm0-4.9c-.5 0-.5.5-.5.5 0 .5 1.5.5 1.5 0-.5 0-.5-.5-1-.5zm0-5.3c-.5 0-.5.5-.5.5 0 .5 1.5.5 1.5 0-.5 0-.5-.5-1-.5zM501 380.8c-2.4 0-4.4-1.9-4.4-4.4 0-1 .5-1.9 1-2.4-.5-.5-1-1.5-1-2.4 0-2.4 1.9-4.4 4.4-4.4 2.4 0 4.4 1.9 4.4 4.4 0 1-.5 1.9-1 2.4.5.5 1 1.5 1 2.4 0 2.5-2 4.4-4.4 4.4zm0-4.9c-.5 0-.5.5-.5.5 0 .5 1.5.5 1.5 0-.5-.5-.5-.5-1-.5zm0-5.3c-.5 0-.5.5-.5.5 0 .5 1.5.5 1.5 0-.5 0-.5-.5-1-.5z"></path></g></g></svg>